<?xml version="1.0" encoding="utf-8"?>
<!-- Generator: Adobe Illustrator 24.2.0, SVG Export Plug-In . SVG Version: 6.00 Build 0)  -->
<svg version="1.1" id="Layer_1" xmlns="http://www.w3.org/2000/svg" xmlns:xlink="http://www.w3.org/1999/xlink" x="0px" y="0px"
	 viewBox="0 0 18 18" style="enable-background:new 0 0 18 18;" xml:space="preserve">
<style type="text/css">
	.st0{fill:#FFFFFF;}
</style>
<path class="st0" d="M9,0C4,0,0,4,0,9c0,5,4,9,9,9c5,0,9-4,9-9C18,4,14,0,9,0z M9,16.5c-4.1,0-7.5-3.4-7.5-7.5S4.9,1.5,9,1.5
	s7.5,3.4,7.5,7.5S13.1,16.5,9,16.5z M13.2,6.2c0.3,0.3,0.3,0.8,0.1,1.1c-0.1,0.2-0.4,0.3-0.6,0.3c-0.2,0-0.4-0.1-0.5-0.2
	c0,0-1.5-1.3-3.3-1.3C7.3,6,5.8,7.3,5.7,7.3C5.4,7.6,5,7.6,4.7,7.2C4.4,6.9,4.4,6.5,4.8,6.2C4.8,6.1,6.7,4.5,9,4.5
	C11.3,4.5,13.2,6.1,13.2,6.2L13.2,6.2z M12.8,10.9c0,0.6-0.5,1.1-1.1,1.1s-1.1-0.5-1.1-1.1s0.5-1.1,1.1-1.1S12.8,10.3,12.8,10.9z
	 M7.5,10.9C7.5,11.5,7,12,6.4,12s-1.1-0.5-1.1-1.1s0.5-1.1,1.1-1.1S7.5,10.3,7.5,10.9z"/>
</svg>
