<svg width="1152" height="310" viewBox="0 0 1152 310" fill="none" xmlns="http://www.w3.org/2000/svg">
<path d="M198.184 46.4123L152.126 0.353552C151.93 0.158291 151.665 0.107407 151.469 0.302668L145.948 5.82398C118.925 32.8472 6.9182 144.853 3.40409 148.368C-0.593127 152.366 -1.45512 162.013 2.90561 166.451C7.25704 170.878 34.8841 198.297 57.631 221.175C57.7248 221.269 57.8516 221.322 57.9847 221.322H149.239C149.684 221.322 149.937 220.815 149.624 220.5C143.075 213.904 99.1851 169.703 94.4788 164.997C89.3915 159.91 87.9379 157.729 94.4788 151.188C100.797 144.87 192.008 53.3186 198.206 47.0975C198.401 46.9021 198.379 46.6073 198.184 46.4123Z" fill="white" style="fill:white;fill-opacity:1;"/>
<path d="M111.575 263.348L157.634 309.406C157.829 309.602 158.095 309.653 158.29 309.457L163.812 303.936C190.835 276.913 302.842 164.907 306.356 161.392C310.353 157.394 311.215 147.747 306.854 143.309C302.503 138.882 274.876 111.463 252.129 88.5851C252.035 88.4907 251.908 88.4384 251.775 88.4384L160.521 88.4384C160.076 88.4384 159.822 88.9445 160.136 89.26C166.685 95.8558 210.575 140.057 215.281 144.763C220.368 149.85 221.822 152.031 215.281 158.572C208.963 164.89 117.752 256.441 111.554 262.662C111.359 262.858 111.38 263.153 111.575 263.348Z" fill="white" style="fill:white;fill-opacity:1;"/>
<path d="M1070.47 101.04C1086.52 101.04 1100.62 104.213 1112.75 110.56C1124.88 116.907 1134.31 125.867 1141.03 137.44C1147.75 148.827 1151.11 162.173 1151.11 177.48C1151.11 192.787 1147.75 206.227 1141.03 217.8C1134.31 229.373 1124.88 238.333 1112.75 244.68C1100.62 251.027 1086.52 254.2 1070.47 254.2C1054.42 254.2 1040.23 251.027 1027.91 244.68C1015.78 238.333 1006.35 229.373 999.631 217.8C992.911 206.227 989.551 192.787 989.551 177.48C989.551 162.173 992.911 148.827 999.631 137.44C1006.35 125.867 1015.78 116.907 1027.91 110.56C1040.23 104.213 1054.42 101.04 1070.47 101.04ZM1070.47 135.48C1063 135.48 1056.38 137.253 1050.59 140.8C1044.99 144.347 1040.6 149.387 1037.43 155.92C1034.26 162.267 1032.67 169.64 1032.67 178.04C1032.67 186.44 1034.26 193.907 1037.43 200.44C1040.6 206.787 1044.99 211.827 1050.59 215.56C1056.38 219.107 1063 220.88 1070.47 220.88C1077.94 220.88 1084.47 219.107 1090.07 215.56C1095.67 211.827 1100.06 206.787 1103.23 200.44C1106.4 193.907 1107.99 186.44 1107.99 178.04C1107.99 169.64 1106.4 162.267 1103.23 155.92C1100.06 149.387 1095.67 144.347 1090.07 140.8C1084.47 137.253 1077.94 135.48 1070.47 135.48Z" fill="white" style="fill:white;fill-opacity:1;"/>
<path d="M830.207 102.44H874.727L910.287 213.32L945.567 102.44H988.407L931.567 252.8H887.327L830.207 102.44Z" fill="white" style="fill:white;fill-opacity:1;"/>
<path d="M787.898 165.44C787.712 158.533 786.218 152.653 783.418 147.8C780.805 142.76 776.978 138.84 771.938 136.04C766.898 133.24 761.112 131.84 754.578 131.84C747.298 131.84 740.952 133.707 735.538 137.44C730.125 141.173 725.925 146.307 722.938 152.84C719.952 159.373 718.458 166.933 718.458 175.52C718.458 185.227 720.138 193.533 723.498 200.44C726.858 207.347 731.618 212.667 737.778 216.4C743.938 220.133 751.032 222 759.058 222C773.618 222 786.312 216.587 797.138 205.76L819.818 228.16C812.352 236.56 803.112 243 792.098 247.48C781.272 251.96 769.045 254.2 755.418 254.2C739.365 254.2 725.458 251.027 713.698 244.68C701.938 238.333 692.792 229.467 686.258 218.08C679.912 206.507 676.738 193.16 676.738 178.04C676.738 162.547 680.005 149.107 686.538 137.72C693.072 126.147 702.125 117.187 713.698 110.84C725.458 104.493 738.992 101.227 754.298 101.04C772.032 101.04 786.498 104.773 797.698 112.24C809.085 119.52 817.298 129.88 822.338 143.32C827.565 156.573 829.525 172.347 828.218 190.64H712.298V165.44H787.898Z" fill="white" style="fill:white;fill-opacity:1;"/>
<path d="M666.094 139.68C656.014 138.747 647.148 139.96 639.494 143.32C632.028 146.68 626.241 151.533 622.134 157.88C618.214 164.227 616.254 171.787 616.254 180.56L605.334 178.6C605.334 162.173 607.761 148.173 612.614 136.6C617.654 125.027 624.748 116.16 633.894 110C643.041 103.84 653.774 100.76 666.094 100.76V139.68ZM573.134 102.44H616.254V252.8H573.134V102.44Z" fill="white" style="fill:white;fill-opacity:1;"/>
<path d="M521.52 116.72C514.987 108.693 507.147 102.44 498 97.96C488.853 93.2933 479.707 90.96 470.56 90.96C462.16 90.96 454.32 92.5467 447.04 95.72C439.947 98.8933 433.6 103.373 428 109.16C422.587 114.76 418.387 121.387 415.4 129.04C412.413 136.693 410.92 145 410.92 153.96C410.92 162.733 412.413 170.947 415.4 178.6C418.387 186.253 422.587 192.973 428 198.76C433.6 204.36 439.947 208.84 447.04 212.2C454.32 215.373 462.16 216.96 470.56 216.96C479.52 216.96 488.48 214.907 497.44 210.8C506.4 206.507 514.427 200.813 521.52 193.72L547.56 220.88C540.653 227.973 532.813 234.133 524.04 239.36C515.453 244.587 506.4 248.693 496.88 251.68C487.36 254.48 477.84 255.88 468.32 255.88C453.573 255.88 439.947 253.36 427.44 248.32C415.12 243.093 404.293 235.907 394.96 226.76C385.813 217.427 378.627 206.6 373.4 194.28C368.173 181.96 365.56 168.613 365.56 154.24C365.56 140.053 368.173 126.893 373.4 114.76C378.627 102.627 386 91.9867 395.52 82.84C405.04 73.6933 416.053 66.6 428.56 61.56C441.253 56.52 455.067 54 470 54C479.52 54 488.947 55.3067 498.28 57.92C507.8 60.5333 516.667 64.2667 524.88 69.12C533.28 73.7867 540.747 79.5733 547.28 86.48L521.52 116.72Z" fill="white" style="fill:white;fill-opacity:1;"/>
</svg>
